<svg id="5d14686c-6c5c-40f8-91bd-12b5dca215a1" data-name="Capa 1" xmlns="http://www.w3.org/2000/svg" width="2021" height="879.4" viewBox="0 0 2021 879.4">
  <title>Falabella logo 2007 con fondo</title>
  <g>
    <rect width="2021" height="879.4" style="fill: #c2d100"/>
    <g>
      <path d="M920.7-1057c8.1-36.4,15.8-68.4,43.5-95.6,19-18.5,44-29.3,70.6-29.3a128.6,128.6,0,0,1,16.8,1.1l-2.2,13.6s-14.1-2.2-22.8,0c-11.4,2.7-17.9,7.6-26.1,15.2-14.7,14.7-19.6,31.5-28.8,71.2L942.4-948.2h73.2l-4.1,16.3H938.6L892.1-726.3c-8.2,36.6-15.9,68.9-43.7,96.2-19.1,18.6-44.3,29.5-71.6,29.5h-9.2l4.9-15.3a42.5,42.5,0,0,0,8.2-.5c14.8-2.2,24.6-7.1,32.9-18.1,13.7-17.5,17-28.5,26.8-67.9l51.5-229.5H819.7l4.3-21.7h71.7Z" transform="translate(-605 1331)" style="fill: #fff"/>
      <path d="M1919.7-866.8h-107c7.1-26.6,28.8-69,67.4-69,41.8-.5,42.9,41.8,36.9,69m-33.2-91.3c-54.9,0-103.8,36.9-115.2,95.1-19.6,98.9,53.8,117.3,84.7,117.3a101.5,101.5,0,0,0,63-21.2l-14.1-16.3c-11.4,7.1-23.9,12-38.6,12-51.1,0-58.1-43.5-55.4-73.9H1955c15.2-48.9-1.1-113-71.2-113" transform="translate(-605 1331)" style="fill: #fff"/>
      <path d="M1284.1-1105.3s-61.4,264-66.8,295.5c-8.1,48.9,17.4,56,31,58.1,25,3.8,41.3-.5,41.3-.5l2.7-16.3a42.8,42.8,0,0,1-20.6,1.1c-15.8-2.7-17.9-12-14.1-38.6,4.9-31,69.5-299.9,69.5-299.9h-42.9v.6Z" transform="translate(-605 1331)" style="fill: #fff"/>
      <path d="M2044.6-1105.3s-61.4,264-66.8,295.5c-8.1,48.9,17.4,56,31,58.1,25,3.8,41.3-.5,41.3-.5l2.7-16.3a42.8,42.8,0,0,1-20.6,1.1c-15.8-2.7-17.9-12-14.1-38.6,4.9-31,69.5-299.9,69.5-299.9h-42.9v.6Z" transform="translate(-605 1331)" style="fill: #fff"/>
      <path d="M2137-1105.3s-61.4,264-66.8,295.5c-8.1,48.9,16.8,56,31,58.1,25,3.8,41.3-.5,41.3-.5l2.7-16.3a42.8,42.8,0,0,1-20.6,1.1c-15.8-2.7-17.9-12-14.1-38.6,4.9-31,69.5-299.9,69.5-299.9h-43Z" transform="translate(-605 1331)" style="fill: #fff"/>
      <path d="M1136.3-837c-4.9,16.3-24.4,73.9-70.6,73.9-54.9,0-28.2-83.1-23.9-99.4s24.4-74.4,69-74.4c53.8,0,30.4,83.6,25.5,99.9m24.6-116.8-5.1,21.7h-1.5c-10.9-20.6-31-26.6-51.6-26.6-62.5,0-98.3,51.6-108.6,101-15.2,70.6,6.5,111.4,65.2,111.4,25.5,0,45.1-6.5,70.1-29.3l10.9,22.8h20.5l43.7-201Z" transform="translate(-605 1331)" style="fill: #fff"/>
      <path d="M1465.5-837c-4.9,16.3-24.4,73.9-70.6,73.9-54.9,0-28.2-83.1-23.9-99.4s24.4-75,68.4-75c54.4.6,31,84.2,26.1,100.5m24.6-116.8-5.1,21.7h-1c-10.9-20.6-31-26.6-51.6-26.6-62.5,0-98.3,51.6-108.6,101-15.2,70.6,6.5,111.4,65.2,111.4,25.5,0,45.1-6.5,70.1-29.3l10.9,22.8h20.5l43.7-201Z" transform="translate(-605 1331)" style="fill: #fff"/>
      <path d="M2315.7-837c-4.9,16.3-24.4,73.9-70.6,73.9-54.9,0-28.2-83.1-23.9-99.4s23.9-75,68.4-75c54.4.6,31,84.2,26.1,100.5m24.6-116.8-5.1,21.7h-1c-11.4-20.6-31-26.6-51.6-26.6-62.5,0-97.8,51.6-108.6,101-15.2,70.6,6.5,111.4,65.2,111.4,25.5,0,45.1-6.5,70.1-29.3l10.9,22.8h20.5l43.7-201Z" transform="translate(-605 1331)" style="fill: #fff"/>
      <path d="M1693.2-834.8c-4.3,16.3-23.9,73.9-65.2,73.9-49.4,0-33.1-83.1-28.8-99.4,6.5-26.1,21.2-73.3,61.9-73.3,55.4-.1,36.4,82,32.1,98.8m-78.8-91.8h-1.1l39.7-173.8h-45.4s-63.2,273.2-80.4,353.1h25.3l20.6-22.8c15.2,22.8,31.5,29.3,57.6,29.3,58.7,0,97.2-40.7,112.5-111.4,10.9-50-3.3-101.6-65.7-101.6C1677.4-953.8,1633-953.5,1614.4-926.6Z" transform="translate(-605 1331)" style="fill: #fff"/>
      <path d="M2408.1-781a27.8,27.8,0,0,1,27.7-27.7,27.8,27.8,0,0,1,27.7,27.7,27.8,27.8,0,0,1-27.7,27.7c-15.8,0-27.7-12-27.7-27.7" transform="translate(-605 1331)" style="fill: #fff"/>
    </g>
  </g>
</svg>
